# xmcd
#
# Track frame offsets: 
#        183
#        17185
#        27793
#        37768
#        48970
#        62260
#        75173
#        90115
#        103020
#        116105
#        132345
#        148303
#        161853
#        178533
#        199525
#        219450
#
# Disc length: 3193 seconds
#
# Revision: 0
# Processed by: cddbd v1.5.2PL0 Copyright (c) Steve Scherf et al.
# Submitted via: ExactAudioCopy v0.95b4
#
DISCID=c80c7710
DTITLE=Various Artist - Bresil Maravilha
DYEAR=1989
DGENRE=Latin
TTITLE0=Vinicius De Morales - Samba Da Bencao
TTITLE1=Maria Creuza - Mas Que Nada
TTITLE2=Chico Buraque - A Banda
TTITLE3=Zimbo Trio - Agua De Beber
TTITLE4=Agostino Dos Santos - A Felicidade
TTITLE5=Quarteto Em Cy - Milagre
TTITLE6=Joao Bosco - O Bebado E O Equilibrista
TTITLE7=A.C.Jobim and Miucha - Samba Do Avio
TTITLE8=Gilberto Gil - Roda
TTITLE9=Toquinho - Deixa
TTITLE10=Joyce - Corcovado
TTITLE11=Milton Nascimento and Francis Hime - Homen Feito
TTITLE12=Astrud Gilberto - Meu Piao
TTITLE13=Jorje Ben and Caetano Veloso - Ive Brussel
TTITLE14=Elis Regina - O Dia Que Eu Vim M'Embora
TTITLE15=Azymuth - Linha Do Horizonte
EXTD=
EXTT0=
EXTT1=
EXTT2=
EXTT3=
EXTT4=
EXTT5=
EXTT6=
EXTT7=
EXTT8=
EXTT9=
EXTT10=
EXTT11=
EXTT12=
EXTT13=
EXTT14=
EXTT15=
PLAYORDER=
